<?xml version="1.0" standalone="no"?>
<!DOCTYPE svg PUBLIC "-//W3C//DTD SVG 20010904//EN"
 "http://www.w3.org/TR/2001/REC-SVG-20010904/DTD/svg10.dtd">
<svg version="1.0" xmlns="http://www.w3.org/2000/svg"
 width="266.000000pt" height="266.000000pt" viewBox="0 0 266.000000 266.000000"
 preserveAspectRatio="xMidYMid meet">
<metadata>
Created by potrace 1.14, written by Peter Selinger 2001-2017
</metadata>
<g transform="translate(0.000000,266.000000) scale(0.100000,-0.100000)"
fill="#000000" stroke="none">
<path d="M1275 2435 c-38 -7 -92 -16 -119 -19 -109 -14 -117 -23 -80 -92 14
-26 23 -52 20 -59 -2 -7 0 -17 6 -23 8 -8 -1 -13 -31 -18 -48 -8 -95 -36 -125
-77 -17 -23 -21 -43 -21 -110 0 -92 4 -86 -92 -148 -68 -44 -84 -73 -72 -129
6 -29 4 -39 -15 -60 -49 -52 -56 -107 -23 -162 10 -15 9 -21 -3 -28 -8 -5 -11
-10 -6 -10 5 0 1 -9 -8 -19 -29 -32 -27 -80 5 -137 15 -29 26 -55 23 -58 -2
-3 -1 -4 2 -2 8 6 60 -56 56 -67 -1 -5 2 -6 6 -3 5 3 17 -3 27 -14 10 -11 14
-20 9 -20 -5 0 -4 -4 2 -8 6 -4 24 -32 41 -62 30 -53 31 -56 18 -105 -7 -27
-11 -61 -8 -74 2 -13 5 -29 6 -35 1 -6 9 -17 17 -24 13 -12 13 -13 0 -7 -10 4
-9 2 2 -8 10 -8 14 -17 10 -21 -4 -4 -2 -7 3 -6 21 5 36 0 30 -10 -4 -6 1 -7
11 -3 13 5 15 3 9 -8 -8 -12 -6 -12 8 0 15 12 17 11 17 -8 0 -12 -3 -20 -7
-18 -5 3 -9 -29 -11 -71 -2 -55 -13 -107 -41 -191 -39 -116 -53 -223 -31 -236
5 -3 11 1 11 9 1 9 3 21 4 26 1 6 3 22 4 36 1 16 5 23 13 18 6 -4 8 -3 5 3
-10 16 4 74 16 66 5 -3 7 -1 3 5 -8 13 13 64 31 75 8 5 11 12 8 17 -8 12 16
93 30 102 6 5 6 8 0 8 -15 0 -9 108 7 128 12 15 11 16 -4 4 -14 -11 -16 -11
-11 7 3 12 8 21 12 22 3 0 32 3 65 6 47 4 57 3 50 -8 -6 -12 -5 -12 9 0 9 7
17 10 17 6 0 -4 7 -2 15 5 8 7 16 10 16 6 1 -3 2 -10 3 -15 0 -5 4 -13 8 -17
4 -3 6 3 3 15 -3 18 1 21 31 23 53 2 87 6 112 12 12 3 22 1 22 -5 0 -5 5 -9
11 -9 5 0 8 4 5 9 -3 5 1 11 9 15 14 5 20 -5 16 -27 -1 -5 3 -6 8 -2 6 3 8 12
4 20 -3 11 -1 13 10 9 8 -3 14 -16 13 -29 0 -13 -5 -21 -10 -18 -5 3 -4 -2 1
-11 6 -11 5 -39 -4 -79 -19 -88 -27 -233 -14 -242 7 -3 11 3 11 15 0 12 4 19
9 16 5 -4 7 3 4 13 -3 10 0 43 6 73 6 29 14 71 17 93 3 22 9 42 13 45 3 3 7
23 7 45 2 76 4 83 20 89 12 5 15 2 10 -11 -5 -16 -5 -16 7 -2 11 15 90 30 174
33 18 1 33 5 33 10 0 4 9 6 20 3 11 -3 18 -1 14 4 -4 8 17 14 39 10 4 0 7 3 7
8 0 9 38 24 53 22 5 -1 6 3 2 9 -3 5 1 13 9 16 9 3 16 13 16 21 0 8 4 12 8 9
17 -10 1 106 -22 158 -13 29 -65 115 -116 192 l-93 138 -2 96 c-3 106 -21 187
-63 273 -16 31 -26 57 -23 57 3 0 7 19 8 43 2 23 7 43 12 45 4 1 6 14 3 29 -3
14 -1 23 4 20 9 -5 9 94 -1 199 -5 46 -12 67 -28 83 -41 38 -128 25 -143 -22
-5 -16 -8 -17 -15 -6 -11 17 -12 62 -1 56 12 -8 13 65 1 79 -14 17 -68 16
-164 -1z m122 -50 c0 -8 -3 -15 -7 -15 -11 0 -6 -44 5 -52 6 -5 5 -8 -3 -8 -8
0 -10 -5 -5 -12 4 -7 8 -22 8 -33 0 -11 5 -26 9 -34 7 -10 6 -12 -4 -6 -10 6
-12 4 -7 -9 4 -10 1 -19 -8 -22 -8 -4 -12 -11 -8 -18 4 -7 1 -7 -9 1 -8 7 -19
9 -23 5 -5 -4 -4 -1 0 7 6 11 4 13 -8 8 -17 -6 -67 13 -67 27 0 5 -8 2 -17 -5
-14 -12 -16 -12 -8 0 6 11 4 13 -8 8 -12 -4 -14 -2 -10 11 6 15 5 15 -10 3
-14 -11 -20 -11 -32 -1 -11 10 -15 10 -15 0 0 -6 -5 -10 -12 -8 -7 3 -12 15
-13 29 0 13 -4 30 -8 37 -5 7 -4 12 3 12 6 0 3 12 -7 27 -10 15 -13 24 -6 20
6 -4 14 -3 18 2 3 5 14 8 25 6 11 -2 20 -1 20 3 0 4 10 8 23 9 21 2 21 1 -3
-12 l-25 -15 25 4 c14 3 29 5 33 5 5 1 5 6 1 13 -4 7 -3 8 4 4 7 -4 12 -1 12
6 0 10 3 9 11 -2 8 -12 12 -12 16 -2 4 10 8 9 18 -5 11 -15 16 -16 27 -5 11
11 10 12 -4 7 -10 -4 -18 -3 -18 2 0 4 14 9 30 9 33 2 36 -2 18 -26 -7 -9 -2
-4 12 12 29 33 27 32 27 13z m176 -84 c5 -5 10 -23 11 -39 1 -17 4 -28 9 -25
6 4 10 -19 10 -67 0 -38 -13 -121 -28 -182 -10 -37 -15 -78 -12 -90 4 -13 6
-27 6 -32 -1 -5 5 -12 11 -16 7 -4 13 -19 13 -33 1 -14 5 -23 8 -21 9 5 20
-56 12 -69 -3 -6 -1 -7 5 -3 7 4 12 1 13 -6 0 -7 2 -20 4 -28 2 -8 6 -33 10
-55 3 -22 8 -45 10 -52 2 -7 0 -15 -5 -18 -23 -14 -130 225 -116 261 4 9 2 12
-5 8 -8 -4 -9 6 -6 32 4 28 0 48 -13 69 -17 27 -47 161 -56 244 -6 61 47 143
88 136 12 -3 26 -9 31 -14z m-463 -124 c0 5 7 10 15 10 9 0 14 -6 11 -13 -3
-8 -1 -16 5 -19 5 -4 9 -3 8 2 -4 21 2 33 17 33 9 0 12 -5 8 -12 -6 -9 -3 -9
9 0 9 8 22 10 28 6 11 -6 42 -13 77 -16 6 -1 12 -5 12 -10 0 -5 5 -6 10 -3 20
12 60 -23 58 -51 -3 -37 -85 -72 -153 -66 -11 2 -59 4 -108 7 l-87 4 -35 -35
c-19 -19 -35 -31 -36 -27 -7 55 10 122 39 153 25 27 93 50 110 38 7 -7 12 -7
12 -1z m315 -92 c-1 -20 2 -38 7 -41 5 -3 6 -10 3 -15 -4 -5 -3 -15 2 -21 12
-21 12 -35 -2 -35 -7 0 -12 8 -10 19 2 10 0 18 -4 18 -5 0 -8 27 -7 59 0 33 4
57 7 55 3 -2 5 -20 4 -39z m-46 -52 c-1 -5 0 -10 1 -13 1 -3 3 -13 5 -23 3
-14 1 -16 -10 -7 -8 7 -18 9 -22 7 -5 -3 -17 2 -28 10 -12 10 -14 14 -5 10 9
-2 24 1 35 9 22 16 25 17 24 7z m-241 -22 c1 -1 4 -1 7 -1 3 -1 22 -7 43 -14
20 -7 61 -17 90 -21 54 -7 71 -18 50 -32 -15 -9 -20 -43 -7 -43 22 0 24 2 21
19 -5 33 20 42 71 23 26 -9 47 -23 47 -30 0 -25 -28 -42 -70 -42 -25 0 -39 -4
-35 -10 9 -14 55 -12 85 3 35 18 53 12 37 -14 -10 -16 -24 -19 -92 -19 -44 0
-136 8 -205 17 -177 22 -193 21 -254 -20 -115 -78 -136 -89 -142 -72 -12 31 6
62 56 93 56 35 65 38 54 20 -4 -7 -3 -8 5 -4 6 4 9 11 6 16 -3 5 4 15 15 22
12 7 30 27 41 45 14 22 25 30 37 27 15 -5 15 -4 2 5 -27 21 13 39 78 36 31 -2
58 -4 60 -4z m352 -115 c0 -3 -4 -8 -10 -11 -5 -3 -10 -1 -10 4 0 6 5 11 10
11 6 0 10 -2 10 -4z m-345 -82 c44 -10 155 -19 237 -19 61 0 89 -4 93 -12 2
-7 -2 -13 -10 -13 -9 0 -12 -6 -8 -17 5 -13 2 -15 -15 -11 -12 4 -20 2 -16 -3
3 -5 -4 -10 -15 -10 -12 -1 -25 -3 -31 -4 -5 -1 -14 -3 -20 -4 -5 0 -10 -6
-10 -11 0 -10 18 -9 82 6 15 3 37 17 48 31 22 28 27 11 7 -22 -12 -19 -25 -26
-57 -29 -8 0 -17 -4 -20 -8 -3 -4 -90 -8 -193 -9 -104 -2 -190 -6 -193 -11 -3
-4 -13 -8 -22 -8 -10 0 -53 -19 -97 -41 -44 -23 -90 -47 -102 -53 -13 -6 -23
-14 -23 -18 0 -11 -28 -10 -35 1 -10 17 -13 71 -3 71 5 0 6 5 3 11 -9 13 45
60 59 52 6 -3 8 -3 4 2 -4 4 -3 14 3 22 14 16 33 18 23 1 -4 -7 -3 -8 5 -4 6
4 9 11 6 16 -3 5 4 11 15 15 11 3 20 11 20 17 0 5 6 8 14 5 8 -3 17 1 20 10 4
8 13 13 21 10 9 -4 12 -1 8 9 -4 12 2 16 23 13 4 0 10 4 13 9 12 19 66 29 106
20 22 -6 49 -12 60 -14z m382 -136 c1 -25 8 -43 23 -55 8 -7 11 -13 5 -13 -5
0 -3 -5 5 -10 10 -6 11 -10 3 -10 -7 0 -13 -4 -13 -10 0 -5 3 -9 8 -9 4 1 14
1 22 0 11 -1 12 -3 3 -9 -8 -5 -9 -13 -3 -22 9 -13 10 -13 10 0 1 9 6 5 14
-10 8 -14 12 -28 10 -32 -3 -5 0 -8 6 -8 7 0 10 -6 8 -12 -3 -8 -25 -13 -56
-14 -28 0 -49 3 -46 8 3 4 -1 8 -8 9 -10 0 -10 2 1 6 11 5 11 7 0 14 -10 6
-11 9 -1 9 6 0 12 5 12 11 0 5 -4 8 -8 5 -5 -3 -17 4 -26 16 -16 18 -16 20 -2
15 12 -5 15 -1 13 13 -4 25 -17 38 -17 17 0 -19 -15 -23 -25 -7 -12 19 -26 0
-15 -20 9 -16 8 -18 -7 -13 -13 5 -15 3 -10 -11 4 -10 3 -15 -3 -11 -6 3 -13
-1 -17 -10 -3 -10 0 -21 8 -26 9 -6 10 -9 2 -9 -7 0 -17 8 -22 18 -7 12 -10
13 -11 3 0 -11 -4 -11 -18 2 -10 10 -22 14 -27 10 -4 -5 -5 -2 -1 5 6 10 11
10 21 2 10 -9 19 -9 32 0 16 10 16 11 1 6 -23 -7 -32 9 -13 24 8 7 12 17 8 23
-3 6 -1 7 6 3 8 -5 10 0 7 20 -3 15 0 34 6 41 8 11 14 9 29 -8 11 -12 19 -26
19 -31 0 -5 10 -3 23 4 12 7 25 12 29 13 14 0 21 15 7 15 -8 0 -20 -5 -27 -12
-14 -14 -21 -8 -27 20 -4 21 4 22 50 7 18 -6 19 -6 2 5 -14 9 -16 15 -6 26 14
17 16 17 16 2z m-199 -29 c40 -11 42 -14 38 -41 -5 -33 -42 -68 -58 -56 -2 1
-12 -4 -24 -10 -11 -6 -32 -13 -45 -15 -40 -8 -242 -77 -264 -90 -11 -7 -46
-19 -77 -27 -36 -8 -58 -18 -58 -27 0 -19 56 -14 104 10 l40 19 -19 -28 c-10
-16 -33 -44 -51 -63 -36 -37 -42 -51 -20 -51 16 0 88 47 98 65 4 6 15 21 25
31 10 11 15 15 12 9 -4 -5 -10 -21 -14 -35 -4 -14 -13 -38 -20 -55 -7 -16 -25
-63 -41 -102 -15 -40 -29 -73 -31 -73 -2 0 -15 24 -27 53 -14 30 -49 78 -84
112 -54 55 -102 125 -86 125 4 0 2 6 -4 13 -19 22 20 89 66 114 29 17 42 19
45 10 4 -7 6 -6 6 4 1 19 54 44 76 35 8 -3 14 -1 12 5 -3 17 93 50 154 53 31
2 62 7 69 11 9 6 11 4 5 -6 -8 -12 -6 -12 8 0 9 7 17 11 17 8 0 -4 9 -3 21 1
34 13 82 13 127 1z"/>
<path d="M1338 2364 c-10 -10 -21 -13 -29 -8 -23 14 -48 11 -68 -8 -23 -20
-36 -24 -25 -6 4 7 3 8 -4 4 -7 -4 -18 -4 -24 1 -31 19 -59 5 -41 -20 5 -7 9
-29 8 -50 0 -29 2 -34 10 -23 10 12 13 12 22 -2 8 -13 14 -14 23 -5 15 14 3
36 -17 29 -8 -3 -11 -1 -8 4 4 6 1 9 -6 8 -6 -2 -14 4 -16 12 -3 9 -1 11 4 5
10 -13 63 -15 63 -3 0 5 -10 7 -22 3 -20 -5 -21 -4 -5 5 9 6 22 8 29 4 7 -5 8
-3 3 6 -6 9 -4 11 5 5 8 -5 11 -4 6 3 -4 7 3 9 21 6 22 -3 25 -2 13 6 -11 8
-8 9 14 6 30 -5 40 -12 42 -27 1 -5 2 -13 3 -19 0 -5 7 -8 14 -6 6 1 8 1 4 -2
-4 -2 0 -10 10 -17 14 -10 15 -16 5 -27 -6 -8 -8 -19 -4 -23 4 -5 2 -5 -5 -1
-19 11 -24 -11 -6 -25 14 -12 16 -12 8 0 -6 10 -4 13 6 9 11 -4 14 4 14 36 0
22 -3 46 -6 51 -3 6 -5 22 -4 38 2 25 0 26 -15 12 -23 -20 -34 -6 -13 17 20
22 13 24 -9 2z m-167 -23 c6 10 9 11 9 2 0 -7 8 -13 18 -13 16 -1 16 -1 -1
-11 -20 -11 -48 4 -46 25 0 6 3 5 6 -3 5 -11 7 -11 14 0z m196 -16 c0 -8 -4
-15 -9 -15 -10 0 -11 14 -1 23 9 10 10 9 10 -8z m-162 -65 c3 -5 1 -10 -4 -10
-6 0 -11 5 -11 10 0 6 2 10 4 10 3 0 8 -4 11 -10z"/>
<path d="M1296 2333 c-10 -10 -7 -25 3 -18 15 9 23 -13 12 -32 -6 -10 -11 -14
-11 -10 0 4 -10 3 -22 -3 -22 -11 -22 -10 -4 4 19 15 12 22 -16 17 -5 0 -8 4
-8 10 0 6 9 8 22 3 21 -6 22 -5 8 11 -13 16 -15 16 -33 -6 -11 -13 -24 -23
-29 -21 -5 1 0 -11 12 -28 19 -27 40 -44 26 -21 -7 11 22 23 36 14 7 -4 8 -1
3 6 -4 7 4 5 19 -4 31 -21 31 -21 7 -21 -11 0 -18 3 -16 6 2 3 -5 7 -16 7 -11
1 -19 -3 -17 -8 2 -6 8 -11 13 -11 6 -1 15 -8 22 -17 6 -9 13 -14 15 -11 2 3
13 17 26 31 l23 27 -26 26 c-14 14 -24 30 -21 35 7 10 -19 23 -28 14z m-39
-64 c-8 -13 -13 -15 -18 -7 -10 15 -4 25 15 25 11 0 12 -4 3 -18z m97 -20 c-3
-5 -14 -3 -25 4 -10 6 -15 13 -9 15 6 2 7 9 3 15 -3 7 3 4 15 -7 12 -10 19
-22 16 -27z"/>
<path d="M1295 2300 c-3 -5 -1 -10 4 -10 6 0 11 5 11 10 0 6 -2 10 -4 10 -3 0
-8 -4 -11 -10z"/>
<path d="M1346 2012 c-2 -4 4 -8 14 -8 10 0 16 4 14 8 -3 4 -9 8 -14 8 -5 0
-11 -4 -14 -8z"/>
<path d="M1220 1960 c8 -5 20 -10 25 -10 6 0 3 5 -5 10 -8 5 -19 10 -25 10 -5
0 -3 -5 5 -10z"/>
<path d="M1268 1963 c6 -2 9 -10 6 -15 -4 -7 -2 -8 5 -4 13 9 5 26 -12 25 -9
0 -8 -2 1 -6z"/>
<path d="M1266 1778 c3 -5 13 -7 22 -6 11 2 16 -3 15 -16 -2 -24 23 -51 32
-36 4 6 1 17 -5 25 -7 8 -9 15 -4 15 4 0 3 5 -3 11 -13 13 -65 20 -57 7z"/>
<path d="M1476 1641 c-4 -5 -2 -12 3 -15 5 -4 12 -2 15 3 4 5 2 12 -3 15 -5 4
-12 2 -15 -3z"/>
<path d="M1415 1603 c3 -19 -2 -35 -18 -52 -12 -14 -14 -19 -4 -12 14 11 17
11 17 0 1 -12 24 17 25 31 0 3 4 11 9 18 4 7 3 19 -4 27 -19 23 -31 18 -25
-12z m23 -8 c-3 -3 -9 2 -12 12 -6 14 -5 15 5 6 7 -7 10 -15 7 -18z"/>
<path d="M1525 1610 c-4 -6 -12 -7 -18 -3 -9 5 -9 3 -1 -8 7 -8 10 -27 8 -44
-3 -29 -2 -29 9 -7 10 17 15 20 25 10 7 -7 12 -17 12 -22 0 -6 -4 -4 -10 4 -5
8 -12 11 -17 7 -4 -5 -1 -12 6 -16 8 -5 9 -11 3 -15 -6 -3 -9 -14 -8 -23 2
-14 13 -18 44 -19 28 0 39 3 33 10 -9 11 -11 17 -11 37 0 5 -4 8 -9 4 -12 -7
-33 30 -23 40 4 3 0 5 -8 3 -9 -2 -14 4 -14 14 1 11 -4 15 -15 11 -12 -3 -11
-1 3 11 11 9 15 16 9 16 -7 0 -15 -5 -18 -10z m64 -106 c4 3 8 0 8 -7 0 -7
-12 -13 -27 -12 -28 0 -32 9 -16 34 7 11 10 11 18 -3 5 -9 13 -14 17 -12z"/>
<path d="M1550 1506 c0 -2 7 -7 16 -10 8 -3 12 -2 9 4 -6 10 -25 14 -25 6z"/>
<path d="M1235 1608 c16 -39 58 -49 102 -23 l28 16 -30 -7 c-59 -14 -70 -11
-67 16 2 19 0 22 -8 10 -8 -13 -10 -12 -10 3 0 9 -7 17 -15 17 -12 0 -12 -5 0
-32z"/>
<path d="M886 1562 c-3 -5 1 -9 9 -9 8 0 12 4 9 9 -3 4 -7 8 -9 8 -2 0 -6 -4
-9 -8z"/>
<path d="M1702 864 c10 -10 20 -16 22 -13 3 3 -5 11 -17 18 -21 13 -21 12 -5
-5z"/>
<path d="M1300 826 c0 -2 8 -10 18 -17 15 -13 16 -12 3 4 -13 16 -21 21 -21
13z"/>
</g>
</svg>
